# Exported from Wings 3D 2.2.5
mtllib internal_part.mtl
o Cube1
#56 vertices, 54 faces
v -0.50000000 -0.50000000 -0.50000000
v -0.50000000 -0.50000000 0.50000000
v -0.50000000 0.50000000 -0.50000000
v -0.50000000 0.50000000 0.50000000
v 0.50000000 -0.50000000 -0.50000000
v 0.50000000 -0.50000000 0.50000000
v 0.50000000 0.50000000 -0.50000000
v 0.50000000 0.50000000 0.50000000
v -0.35000000 0.50000000 -0.35000000
v -0.35000000 0.50000000 0.35000000
v 0.35000000 0.50000000 0.35000000
v 0.35000000 0.50000000 -0.35000000
v -0.35000000 -0.50000000 0.35000000
v -0.35000000 -0.50000000 -0.35000000
v 0.35000000 -0.50000000 -0.35000000
v 0.35000000 -0.50000000 0.35000000
v -0.35000000 0.35000000 0.50000000
v -0.35000000 -0.35000000 0.50000000
v 0.35000000 -0.35000000 0.50000000
v 0.35000000 0.35000000 0.50000000
v -0.35000000 -0.35000000 -0.50000000
v -0.35000000 0.35000000 -0.50000000
v 0.35000000 0.35000000 -0.50000000
v 0.35000000 -0.35000000 -0.50000000
v 0.50000000 -0.35000000 0.35000000
v 0.50000000 -0.35000000 -0.35000000
v 0.50000000 0.35000000 -0.35000000
v 0.50000000 0.35000000 0.35000000
v -0.50000000 -0.35000000 -0.35000000
v -0.50000000 -0.35000000 0.35000000
v -0.50000000 0.35000000 0.35000000
v -0.50000000 0.35000000 -0.35000000
v -0.39511111 -0.35000000 -0.35000000
v -0.39511111 -0.35000000 0.35000000
v -0.39511111 0.35000000 0.35000000
v -0.39511111 0.35000000 -0.35000000
v 0.39511111 -0.35000000 0.35000000
v 0.39511111 -0.35000000 -0.35000000
v 0.39511111 0.35000000 -0.35000000
v 0.39511111 0.35000000 0.35000000
v -0.35000000 -0.35000000 -0.39511111
v -0.35000000 0.35000000 -0.39511111
v 0.35000000 0.35000000 -0.39511111
v 0.35000000 -0.35000000 -0.39511111
v -0.35000000 0.35000000 0.39511111
v -0.35000000 -0.35000000 0.39511111
v 0.35000000 -0.35000000 0.39511111
v 0.35000000 0.35000000 0.39511111
v -0.35000000 -0.39511111 0.35000000
v -0.35000000 -0.39511111 -0.35000000
v 0.35000000 -0.39511111 -0.35000000
v 0.35000000 -0.39511111 0.35000000
v -0.35000000 0.39511111 -0.35000000
v -0.35000000 0.39511111 0.35000000
v 0.35000000 0.39511111 0.35000000
v 0.35000000 0.39511111 -0.35000000
vt 0.0000000e+0 0.27027027
vt 0.0000000e+0 0.54054054
vt 0.0000000e+0 0.81081081
vt 0.0000000e+0 0.81081081
vt 6.9388939e-18 1.00000000
vt 2.7755576e-17 0.54054054
vt 1.3877788e-16 0.27027027
vt 1.9428903e-16 0.27027027
vt 3.6082248e-16 1.6653345e-16
vt 2.8348348e-2 0.81081081
vt 2.8348348e-2 1.00000000
vt 2.8348348e-2 0.81081081
vt 2.8348348e-2 1.00000000
vt 4.0540541e-2 0.77027027
vt 4.0540541e-2 0.22972973
vt 4.0540541e-2 0.50000000
vt 4.0540541e-2 0.31081081
vt 4.0540541e-2 4.0540541e-2
vt 4.0540541e-2 0.58108108
vt 4.0540541e-2 0.22972973
vt 5.6696697e-2 0.81081081
vt 5.6696697e-2 1.00000000
vt 5.6696697e-2 0.81081081
vt 8.5045045e-2 1.00000000
vt 8.5045045e-2 0.81081081
vt 8.5045045e-2 1.00000000
vt 8.5045045e-2 0.81081081
vt 0.11339339 1.00000000
vt 0.11339339 0.81081081
vt 0.22972973 0.77027027
vt 0.22972973 0.58108108
vt 0.22972973 0.31081081
vt 0.22972973 0.50000000
vt 0.22972973 0.50000000
vt 0.22972973 0.22972973
vt 0.22972973 4.0540541e-2
vt 0.27027027 0.81081081
vt 0.27027027 0.54054054
vt 0.27027027 0.81081081
vt 0.27027027 0.54054054
vt 0.27027027 0.27027027
vt 0.27027027 0.54054054
vt 0.27027027 0.27027027
vt 0.27027027 0.27027027
vt 0.27027027 0.0000000e+0
vt 0.27027027 8.3266727e-17
vt 0.27027027 0.54054054
vt 0.27027027 0.27027027
vt 0.31081081 0.58108108
vt 0.31081081 0.77027027
vt 0.31081081 0.22972973
vt 0.31081081 0.50000000
vt 0.31081081 0.31081081
vt 0.31081081 4.0540541e-2
vt 0.50000000 0.58108108
vt 0.50000000 0.77027027
vt 0.50000000 0.50000000
vt 0.50000000 0.22972973
vt 0.50000000 4.0540541e-2
vt 0.50000000 0.31081081
vt 0.54054054 0.81081081
vt 0.54054054 0.54054054
vt 0.54054054 0.27027027
vt 0.54054054 0.54054054
vt 0.54054054 0.0000000e+0
vt 0.54054054 0.27027027
vt 0.54054054 0.0000000e+0
vt 0.54054054 0.18918919
vt 0.54054054 0.18918919
vt 0.54054054 0.37837838
vt 0.54054054 0.37837838
vt 0.54054054 0.40672673
vt 0.54054054 0.40672673
vt 0.54054054 0.43507508
vt 0.54054054 0.46342342
vt 0.54054054 0.46342342
vt 0.54054054 0.49177177
vt 0.54054054 0.49177177
vt 0.54054054 0.52012012
vt 0.54054054 0.52012012
vt 0.54054054 0.54846847
vt 0.54054054 0.54846847
vt 0.54054054 0.57681682
vt 0.54054054 0.60516517
vt 0.54054054 0.63351351
vt 0.54054054 0.63351351
vt 0.54054054 0.66186186
vt 0.54054054 0.66186186
vt 0.54054054 0.69021021
vt 0.54054054 0.69021021
vt 0.54054054 0.71855856
vt 0.72972973 0.0000000e+0
vt 0.72972973 2.7755576e-17
vt 0.72972973 0.18918919
vt 0.72972973 0.18918919
vt 0.72972973 0.18918919
vt 0.72972973 0.37837838
vt 0.72972973 0.37837838
vt 0.72972973 0.40672673
vt 0.72972973 0.40672673
vt 0.72972973 0.43507508
vt 0.72972973 0.43507508
vt 0.72972973 0.46342342
vt 0.72972973 0.46342342
vt 0.72972973 0.49177177
vt 0.72972973 0.49177177
vt 0.72972973 0.52012012
vt 0.72972973 0.52012012
vt 0.72972973 0.54846847
vt 0.72972973 0.56756757
vt 0.72972973 0.57681682
vt 0.72972973 0.60516517
vt 0.72972973 0.63351351
vt 0.72972973 0.63351351
vt 0.72972973 0.66186186
vt 0.72972973 0.66186186
vt 0.72972973 0.69021021
vt 0.72972973 0.69021021
vt 0.72972973 0.71855856
vt 0.72972973 0.75675676
vt 0.91891892 0.0000000e+0
vt 0.91891892 0.18918919
vt 0.91891892 0.37837838
vt 0.91891892 0.37837838
vt 0.91891892 0.56756757
vt 0.91891892 0.75675676
vt 0.91891892 0.18918919
vt 0.91891892 0.37837838
vt 0.91891892 0.56756757
vt 0.91891892 0.75675676
vt 0.91891892 0.0000000e+0
vt 0.91891892 0.18918919
vt 0.91891892 0.37837838
vt 0.91891892 0.56756757
vt 0.94726727 0.18918919
vt 0.94726727 0.37837838
vt 0.94726727 0.56756757
vt 0.94726727 0.75675676
vt 0.94726727 2.7755576e-17
vt 0.94726727 0.18918919
vt 0.94726727 0.37837838
vt 0.94726727 0.37837838
vt 0.94726727 0.56756757
vt 0.94726727 0.75675676
vt 0.94726727 0.18918919
vt 0.94726727 0.37837838
vt 0.94726727 0.0000000e+0
vt 0.94726727 0.18918919
vt 0.97561562 0.18918919
vt 0.97561562 0.37837838
vt 0.97561562 0.37837838
vt 0.97561562 0.56756757
vt 0.97561562 0.75675676
vt 0.97561562 2.7755576e-17
vt 0.97561562 0.18918919
vn 0.0000000e+0 -1.00000000 0.0000000e+0
vn 0.0000000e+0 -1.00000000 0.0000000e+0
vn 0.0000000e+0 0.0000000e+0 -1.00000000
vn 0.0000000e+0 0.0000000e+0 -1.00000000
vn -1.00000000 0.0000000e+0 0.0000000e+0
vn -1.00000000 0.0000000e+0 0.0000000e+0
vn 0.0000000e+0 -1.00000000 0.0000000e+0
vn 0.0000000e+0 -1.00000000 0.0000000e+0
vn 0.0000000e+0 0.0000000e+0 1.00000000
vn 0.0000000e+0 0.0000000e+0 1.00000000
vn -1.00000000 0.0000000e+0 0.0000000e+0
vn -1.00000000 0.0000000e+0 0.0000000e+0
vn 0.0000000e+0 1.00000000 0.0000000e+0
vn 0.0000000e+0 1.00000000 0.0000000e+0
vn 0.0000000e+0 0.0000000e+0 -1.00000000
vn 0.0000000e+0 0.0000000e+0 -1.00000000
vn -1.00000000 0.0000000e+0 0.0000000e+0
vn -1.00000000 0.0000000e+0 0.0000000e+0
vn 0.0000000e+0 1.00000000 0.0000000e+0
vn 0.0000000e+0 1.00000000 0.0000000e+0
vn 0.0000000e+0 0.0000000e+0 1.00000000
vn 0.0000000e+0 0.0000000e+0 1.00000000
vn -1.00000000 0.0000000e+0 0.0000000e+0
vn -1.00000000 0.0000000e+0 0.0000000e+0
vn 0.0000000e+0 -1.00000000 0.0000000e+0
vn 0.0000000e+0 -1.00000000 0.0000000e+0
vn 0.0000000e+0 0.0000000e+0 -1.00000000
vn 0.0000000e+0 0.0000000e+0 -1.00000000
vn 1.00000000 0.0000000e+0 0.0000000e+0
vn 1.00000000 0.0000000e+0 0.0000000e+0
vn 0.0000000e+0 -1.00000000 0.0000000e+0
vn 0.0000000e+0 -1.00000000 0.0000000e+0
vn 0.0000000e+0 0.0000000e+0 1.00000000
vn 0.0000000e+0 0.0000000e+0 1.00000000
vn 1.00000000 0.0000000e+0 0.0000000e+0
vn 1.00000000 0.0000000e+0 0.0000000e+0
vn 0.0000000e+0 1.00000000 0.0000000e+0
vn 0.0000000e+0 1.00000000 0.0000000e+0
vn 0.0000000e+0 0.0000000e+0 -1.00000000
vn 0.0000000e+0 0.0000000e+0 -1.00000000
vn 1.00000000 0.0000000e+0 0.0000000e+0
vn 1.00000000 0.0000000e+0 0.0000000e+0
vn 0.0000000e+0 1.00000000 0.0000000e+0
vn 0.0000000e+0 1.00000000 0.0000000e+0
vn 0.0000000e+0 0.0000000e+0 1.00000000
vn 0.0000000e+0 0.0000000e+0 1.00000000
vn 1.00000000 0.0000000e+0 0.0000000e+0
vn 1.00000000 0.0000000e+0 0.0000000e+0
vn 0.0000000e+0 1.00000000 0.0000000e+0
vn 0.0000000e+0 1.00000000 0.0000000e+0
vn 1.00000000 0.0000000e+0 0.0000000e+0
vn 0.0000000e+0 0.0000000e+0 1.00000000
vn 0.0000000e+0 1.00000000 0.0000000e+0
vn 0.0000000e+0 1.00000000 0.0000000e+0
vn 1.00000000 0.0000000e+0 0.0000000e+0
vn 0.0000000e+0 0.0000000e+0 -1.00000000
vn 0.0000000e+0 1.00000000 0.0000000e+0
vn 0.0000000e+0 1.00000000 0.0000000e+0
vn 0.0000000e+0 0.0000000e+0 -1.00000000
vn -1.00000000 0.0000000e+0 0.0000000e+0
vn 0.0000000e+0 1.00000000 0.0000000e+0
vn 0.0000000e+0 1.00000000 0.0000000e+0
vn -1.00000000 0.0000000e+0 0.0000000e+0
vn 0.0000000e+0 0.0000000e+0 1.00000000
vn 0.0000000e+0 -1.00000000 0.0000000e+0
vn 0.0000000e+0 -1.00000000 0.0000000e+0
vn 1.00000000 0.0000000e+0 0.0000000e+0
vn 0.0000000e+0 0.0000000e+0 -1.00000000
vn 0.0000000e+0 -1.00000000 0.0000000e+0
vn 0.0000000e+0 -1.00000000 0.0000000e+0
vn 1.00000000 0.0000000e+0 0.0000000e+0
vn 0.0000000e+0 0.0000000e+0 1.00000000
vn 0.0000000e+0 -1.00000000 0.0000000e+0
vn 0.0000000e+0 -1.00000000 0.0000000e+0
vn 0.0000000e+0 0.0000000e+0 1.00000000
vn -1.00000000 0.0000000e+0 0.0000000e+0
vn 0.0000000e+0 -1.00000000 0.0000000e+0
vn 0.0000000e+0 -1.00000000 0.0000000e+0
vn -1.00000000 0.0000000e+0 0.0000000e+0
vn 0.0000000e+0 0.0000000e+0 -1.00000000
vn 0.0000000e+0 0.0000000e+0 1.00000000
vn 0.0000000e+0 0.0000000e+0 1.00000000
vn 1.00000000 0.0000000e+0 0.0000000e+0
vn 0.0000000e+0 -1.00000000 0.0000000e+0
vn 0.0000000e+0 0.0000000e+0 1.00000000
vn 0.0000000e+0 0.0000000e+0 1.00000000
vn 1.00000000 0.0000000e+0 0.0000000e+0
vn 0.0000000e+0 1.00000000 0.0000000e+0
vn 0.0000000e+0 0.0000000e+0 1.00000000
vn 0.0000000e+0 0.0000000e+0 1.00000000
vn 0.0000000e+0 1.00000000 0.0000000e+0
vn -1.00000000 0.0000000e+0 0.0000000e+0
vn 0.0000000e+0 0.0000000e+0 1.00000000
vn 0.0000000e+0 0.0000000e+0 1.00000000
vn -1.00000000 0.0000000e+0 0.0000000e+0
vn 0.0000000e+0 -1.00000000 0.0000000e+0
vn 0.0000000e+0 0.0000000e+0 -1.00000000
vn 0.0000000e+0 0.0000000e+0 -1.00000000
vn 1.00000000 0.0000000e+0 0.0000000e+0
vn 0.0000000e+0 1.00000000 0.0000000e+0
vn 0.0000000e+0 0.0000000e+0 -1.00000000
vn 0.0000000e+0 0.0000000e+0 -1.00000000
vn 1.00000000 0.0000000e+0 0.0000000e+0
vn 0.0000000e+0 -1.00000000 0.0000000e+0
vn 0.0000000e+0 0.0000000e+0 -1.00000000
vn 0.0000000e+0 0.0000000e+0 -1.00000000
vn 0.0000000e+0 -1.00000000 0.0000000e+0
vn -1.00000000 0.0000000e+0 0.0000000e+0
vn 0.0000000e+0 0.0000000e+0 -1.00000000
vn 0.0000000e+0 0.0000000e+0 -1.00000000
vn -1.00000000 0.0000000e+0 0.0000000e+0
vn 0.0000000e+0 1.00000000 0.0000000e+0
vn 1.00000000 0.0000000e+0 0.0000000e+0
vn 1.00000000 0.0000000e+0 0.0000000e+0
vn 0.0000000e+0 1.00000000 0.0000000e+0
vn 0.0000000e+0 0.0000000e+0 -1.00000000
vn 1.00000000 0.0000000e+0 0.0000000e+0
vn 1.00000000 0.0000000e+0 0.0000000e+0
vn 0.0000000e+0 1.00000000 0.0000000e+0
vn 0.0000000e+0 0.0000000e+0 1.00000000
vn 1.00000000 0.0000000e+0 0.0000000e+0
vn 1.00000000 0.0000000e+0 0.0000000e+0
vn 0.0000000e+0 0.0000000e+0 1.00000000
vn 0.0000000e+0 -1.00000000 0.0000000e+0
vn 1.00000000 0.0000000e+0 0.0000000e+0
vn 1.00000000 0.0000000e+0 0.0000000e+0
vn 0.0000000e+0 -1.00000000 0.0000000e+0
vn 0.0000000e+0 0.0000000e+0 -1.00000000
vn -1.00000000 0.0000000e+0 0.0000000e+0
vn -1.00000000 0.0000000e+0 0.0000000e+0
vn 0.0000000e+0 1.00000000 0.0000000e+0
vn 0.0000000e+0 0.0000000e+0 1.00000000
vn -1.00000000 0.0000000e+0 0.0000000e+0
vn -1.00000000 0.0000000e+0 0.0000000e+0
vn 0.0000000e+0 1.00000000 0.0000000e+0
vn 0.0000000e+0 0.0000000e+0 -1.00000000
vn -1.00000000 0.0000000e+0 0.0000000e+0
vn -1.00000000 0.0000000e+0 0.0000000e+0
vn 0.0000000e+0 0.0000000e+0 -1.00000000
vn 0.0000000e+0 -1.00000000 0.0000000e+0
vn -1.00000000 0.0000000e+0 0.0000000e+0
vn -1.00000000 0.0000000e+0 0.0000000e+0
vn 0.0000000e+0 -1.00000000 0.0000000e+0
vn 0.0000000e+0 0.0000000e+0 1.00000000
vn -1.00000000 0.0000000e+0 0.0000000e+0
vn 0.0000000e+0 1.00000000 0.0000000e+0
vn 0.0000000e+0 0.0000000e+0 1.00000000
vn -1.00000000 0.0000000e+0 0.0000000e+0
vn 0.0000000e+0 1.00000000 0.0000000e+0
vn 0.0000000e+0 0.0000000e+0 -1.00000000
vn -1.00000000 0.0000000e+0 0.0000000e+0
vn 0.0000000e+0 0.0000000e+0 -1.00000000
vn 0.0000000e+0 -1.00000000 0.0000000e+0
vn -1.00000000 0.0000000e+0 0.0000000e+0
vn 0.0000000e+0 -1.00000000 0.0000000e+0
vn 0.0000000e+0 0.0000000e+0 1.00000000
vn 1.00000000 0.0000000e+0 0.0000000e+0
vn 0.0000000e+0 1.00000000 0.0000000e+0
vn 0.0000000e+0 0.0000000e+0 -1.00000000
vn 1.00000000 0.0000000e+0 0.0000000e+0
vn 0.0000000e+0 1.00000000 0.0000000e+0
vn 0.0000000e+0 0.0000000e+0 1.00000000
vn 1.00000000 0.0000000e+0 0.0000000e+0
vn 0.0000000e+0 0.0000000e+0 1.00000000
vn 0.0000000e+0 -1.00000000 0.0000000e+0
vn 1.00000000 0.0000000e+0 0.0000000e+0
vn 0.0000000e+0 -1.00000000 0.0000000e+0
vn 0.0000000e+0 0.0000000e+0 -1.00000000
vn 0.0000000e+0 0.0000000e+0 -1.00000000
vn 1.00000000 0.0000000e+0 0.0000000e+0
vn 0.0000000e+0 1.00000000 0.0000000e+0
vn 0.0000000e+0 0.0000000e+0 -1.00000000
vn 1.00000000 0.0000000e+0 0.0000000e+0
vn 0.0000000e+0 -1.00000000 0.0000000e+0
vn 0.0000000e+0 0.0000000e+0 -1.00000000
vn 0.0000000e+0 -1.00000000 0.0000000e+0
vn -1.00000000 0.0000000e+0 0.0000000e+0
vn 0.0000000e+0 0.0000000e+0 -1.00000000
vn -1.00000000 0.0000000e+0 0.0000000e+0
vn 0.0000000e+0 1.00000000 0.0000000e+0
vn 0.0000000e+0 0.0000000e+0 1.00000000
vn 1.00000000 0.0000000e+0 0.0000000e+0
vn 0.0000000e+0 -1.00000000 0.0000000e+0
vn 0.0000000e+0 0.0000000e+0 1.00000000
vn 1.00000000 0.0000000e+0 0.0000000e+0
vn 0.0000000e+0 1.00000000 0.0000000e+0
vn 0.0000000e+0 0.0000000e+0 1.00000000
vn 0.0000000e+0 1.00000000 0.0000000e+0
vn -1.00000000 0.0000000e+0 0.0000000e+0
vn 0.0000000e+0 0.0000000e+0 1.00000000
vn -1.00000000 0.0000000e+0 0.0000000e+0
vn 0.0000000e+0 -1.00000000 0.0000000e+0
vn 0.0000000e+0 -1.00000000 0.0000000e+0
vn 1.00000000 0.0000000e+0 0.0000000e+0
vn 0.0000000e+0 0.0000000e+0 -1.00000000
vn 0.0000000e+0 -1.00000000 0.0000000e+0
vn 1.00000000 0.0000000e+0 0.0000000e+0
vn 0.0000000e+0 0.0000000e+0 1.00000000
vn 0.0000000e+0 -1.00000000 0.0000000e+0
vn 0.0000000e+0 0.0000000e+0 1.00000000
vn -1.00000000 0.0000000e+0 0.0000000e+0
vn 0.0000000e+0 -1.00000000 0.0000000e+0
vn -1.00000000 0.0000000e+0 0.0000000e+0
vn 0.0000000e+0 0.0000000e+0 -1.00000000
vn 0.0000000e+0 1.00000000 0.0000000e+0
vn 1.00000000 0.0000000e+0 0.0000000e+0
vn 0.0000000e+0 0.0000000e+0 1.00000000
vn 0.0000000e+0 1.00000000 0.0000000e+0
vn 1.00000000 0.0000000e+0 0.0000000e+0
vn 0.0000000e+0 0.0000000e+0 -1.00000000
vn 0.0000000e+0 1.00000000 0.0000000e+0
vn 0.0000000e+0 0.0000000e+0 -1.00000000
vn -1.00000000 0.0000000e+0 0.0000000e+0
vn 0.0000000e+0 1.00000000 0.0000000e+0
vn -1.00000000 0.0000000e+0 0.0000000e+0
vn 0.0000000e+0 0.0000000e+0 1.00000000
g Cube1_Cube1_auv
usemtl Cube1_auv
s 1
f 2/46/9 18/54/85 17/51/81 4/48/21
f 4/48/22 17/51/82 20/58/94 8/66/46
f 6/65/33 19/59/89 18/54/86 2/46/10
f 8/66/45 20/58/93 19/59/90 6/65/34
f 9/72/52 53/71/207 56/98/216 12/99/64
f 11/77/59 55/76/212 54/104/210 10/105/56
f 14/112/71 50/114/197 49/86/194 13/84/67
f 16/109/79 52/111/203 51/83/201 15/81/76
f 22/136/103 42/128/173 41/132/170 21/140/99
f 24/143/111 44/152/179 43/153/177 23/144/108
f 25/23/116 37/25/159 40/24/168 28/22/128
f 27/137/123 39/129/164 38/133/162 26/142/120
f 30/12/135 34/21/149 33/22/146 29/13/131
f 32/149/143 36/145/155 35/147/153 31/154/140
f 46/67/184 47/93/187 48/95/190 45/68/181
s 2
f 1/41/4 21/32/98 24/17/110 5/7/28
f 3/42/15 22/34/101 21/32/97 1/41/3
f 5/7/27 24/17/109 23/16/106 7/2/40
f 7/2/39 23/16/105 22/33/102 3/42/16
f 13/116/68 49/117/195 52/89/204 16/88/80
f 15/111/75 51/112/200 50/84/198 14/83/72
f 18/141/87 46/151/185 45/152/182 17/143/83
f 20/135/95 48/127/191 47/131/189 19/139/92
f 29/27/132 33/29/147 36/28/156 32/26/144
f 31/150/139 35/146/152 34/148/150 30/155/136
f 38/122/160 39/123/163 40/97/166 37/94/157
f 42/125/172 43/110/175 44/98/178 41/124/169
f 54/69/208 55/96/211 56/98/214 53/70/205
s 3
f 1/6/6 29/19/130 32/14/142 3/3/18
f 2/38/11 30/31/133 29/19/129 1/6/5
f 3/3/17 32/14/141 31/30/138 4/37/24
f 4/37/23 31/30/137 30/31/134 2/38/12
f 10/80/55 54/78/209 53/106/206 9/108/51
f 12/75/63 56/74/215 55/102/213 11/103/60
f 17/118/84 45/119/183 48/91/192 20/90/96
f 19/113/91 47/115/188 46/87/186 18/85/88
f 21/74/100 41/73/171 44/100/180 24/101/112
f 23/82/107 43/79/176 42/107/174 22/109/104
f 26/138/119 38/130/161 37/134/158 25/143/115
f 28/4/127 40/10/167 39/11/165 27/5/124
f 34/121/148 35/122/151 36/94/154 33/92/145
f 50/126/196 51/120/199 52/110/202 49/125/193
s 4
f 1/64/1 14/57/69 13/60/65 2/63/7
f 2/63/8 13/60/66 16/53/78 6/44/32
f 3/39/14 9/50/50 12/56/62 7/61/38
f 4/40/19 10/49/53 9/50/49 3/39/13
f 5/47/25 15/52/73 14/57/70 1/64/2
f 6/44/31 16/53/77 15/52/74 5/47/26
f 7/61/37 12/56/61 11/55/58 8/62/44
f 8/62/43 11/55/57 10/49/54 4/40/20
s 5
f 5/45/29 26/36/117 25/18/113 6/9/35
f 6/9/36 25/18/114 28/15/126 8/1/48
f 7/43/41 27/35/121 26/36/118 5/45/30
f 8/8/47 28/20/125 27/35/122 7/43/42
